<svg width="18" height="18" viewBox="0 0 18 18" fill="none" xmlns="http://www.w3.org/2000/svg">
<path d="M14.4211 3.73684H11.8158V3.44737C11.8158 2.64929 11.1665 2 10.3684 2H8.63158C7.8335 2 7.18421 2.64929 7.18421 3.44737V3.73684H4.57895C4.4254 3.73684 4.27814 3.79784 4.16957 3.90641C4.061 4.01499 4 4.16224 4 4.31579V5.18421C4 5.33776 4.061 5.48501 4.16957 5.59359C4.27814 5.70216 4.4254 5.76316 4.57895 5.76316H14.4211C14.5746 5.76316 14.7219 5.70216 14.8304 5.59359C14.939 5.48501 15 5.33776 15 5.18421V4.31579C15 4.16224 14.939 4.01499 14.8304 3.90641C14.7219 3.79784 14.5746 3.73684 14.4211 3.73684ZM8.34211 3.44737C8.34211 3.28787 8.47208 3.15789 8.63158 3.15789H10.3684C10.5279 3.15789 10.6579 3.28787 10.6579 3.44737V3.73684H8.34211V3.44737ZM14.2126 6.53171C14.1584 6.47201 14.0922 6.42431 14.0184 6.39166C13.9447 6.35901 13.8649 6.34213 13.7842 6.34211H5.21579C5.13511 6.34214 5.05533 6.35904 4.98155 6.3917C4.90778 6.42437 4.84165 6.47208 4.78739 6.53179C4.73313 6.5915 4.69194 6.66189 4.66646 6.73844C4.64099 6.815 4.63179 6.89603 4.63945 6.97634L5.35097 14.4123C5.43174 15.2576 6.17539 15.895 7.08087 15.895H11.9191C12.8243 15.895 13.5683 15.2576 13.649 14.4123L14.3606 6.97634C14.3682 6.89601 14.3591 6.81496 14.3336 6.73839C14.3081 6.66182 14.2669 6.59142 14.2126 6.53171ZM8.147 14.4462C8.13455 14.4468 8.12239 14.4474 8.10995 14.4474C7.96282 14.4472 7.82126 14.3911 7.71405 14.2903C7.60683 14.1895 7.54201 14.0517 7.53274 13.9049L7.18537 8.4049C7.17578 8.25168 7.2274 8.10091 7.3289 7.98573C7.4304 7.87056 7.57347 7.80038 7.72668 7.79063C7.87983 7.78135 8.03042 7.83308 8.14553 7.93452C8.26064 8.03596 8.3309 8.17885 8.34095 8.33195L8.68832 13.8319C8.69791 13.9852 8.64628 14.1359 8.54478 14.2511C8.44328 14.3663 8.30021 14.4365 8.147 14.4462ZM11.4673 13.9049C11.4629 13.981 11.4434 14.0556 11.4101 14.1242C11.3768 14.1928 11.3303 14.2542 11.2732 14.3048C11.2161 14.3554 11.1496 14.3942 11.0774 14.419C11.0053 14.4437 10.9289 14.454 10.8528 14.4492C10.7767 14.4444 10.7023 14.4246 10.6338 14.391C10.5653 14.3573 10.5042 14.3104 10.4539 14.2531C10.4037 14.1957 10.3652 14.129 10.3408 14.0567C10.3164 13.9844 10.3065 13.9081 10.3117 13.8319L10.6591 8.33195C10.6695 8.17928 10.7399 8.03695 10.855 7.93608C10.9701 7.8352 11.1204 7.78399 11.2731 7.79363C11.4258 7.80327 11.5685 7.87298 11.67 7.98752C11.7715 8.10207 11.8235 8.25213 11.8146 8.4049L11.4673 13.9049Z" fill="#FF0000"/>
</svg>
