<svg width="20" height="20" viewBox="0 0 20 20" fill="none" xmlns="http://www.w3.org/2000/svg">
<g clip-path="url(#clip0_4791_12740)">
<path d="M0.7 0.7C1.2 0.3 1.9 0 2.5 0C3.5 0 4.6 0 5.5 0H7C8.3 0 9.4 1.1 9.4 2.5C9.4 4.1 9.4 5.6 9.4 7.1C9.4 8.5 8.3 9.6 6.9 9.6C6.1 9.6 5.4 9.6 4.6 9.6C2.6 9.6 0.2 9.8 0 7C0 6.2 0 5.3 0 4.5C0.1 3.2 -0.3 1.7 0.7 0.7ZM9.5 14.8C9.5 15.6 9.5 16.5 9.5 17.3C9.6 18.8 8.4 20 7 20C5.8 20 4.6 20 3.4 20C2.5 20 1.4 20 0.8 19.3C0.1 18.7 0 17.7 0 16.9C0 15.6 0 14.3 0 13C0 11.9 0.8 10.9 1.8 10.6C2.8 10.4 3.7 10.5 4.9 10.5C5.6 10.5 6.2 10.5 6.9 10.5C9.6 10.6 9.6 12.7 9.5 14.8ZM18.6 11.9C21.6 14.8 19.4 20.1 15.2 20C11 20 8.8 14.8 11.8 11.9C13.6 10 16.8 10 18.6 11.9ZM10.5 7C10.5 5.4 10.5 3.9 10.5 2.5C10.5 1.1 11.6 0 13 0C14.5 0 16 0 17.6 0C18.8 0 20 1.2 20 2.5C20 3.4 20 4.2 20 5.1C20 6.3 20.3 7.9 19.3 8.8C18.3 9.9 16.6 9.5 15.3 9.5C14.5 9.5 13.8 9.5 13.1 9.5C11.6 9.5 10.5 8.4 10.5 7Z" fill="white"/>
</g>
<defs>
<clipPath id="clip0_4791_12740">
<rect width="20" height="20" fill="white"/>
</clipPath>
</defs>
</svg>
