<svg width="24" height="24" viewBox="0 0 24 24" fill="none" xmlns="http://www.w3.org/2000/svg">
<path d="M2.74217 2.73534C3.21482 2.2666 3.85153 2.00879 4.51558 2.0127C5.55853 2.00879 6.57804 2.00879 7.54678 2.00879H9.08581C10.41 2.0127 11.5076 3.11033 11.5311 4.46187C11.5584 6.07513 11.5584 7.5751 11.5311 9.03992C11.5037 10.4422 10.4217 11.5125 9.0116 11.5282C8.24989 11.5399 7.48428 11.5438 6.7382 11.5438C4.57417 11.5633 2.19921 11.8368 2.01562 8.96571C2.02343 8.12588 2.01562 7.29776 2.01562 6.46184C2.0664 5.21186 1.72656 3.68454 2.74217 2.73534ZM11.535 16.8289C11.535 17.657 11.5311 18.5163 11.5389 19.3601C11.578 20.7741 10.4178 22.0163 9.00378 21.9928C7.83193 21.9655 6.56633 21.9967 5.37884 21.9889C4.44527 22.0319 3.40622 21.9811 2.74217 21.2585C2.09765 20.6608 1.95703 19.7194 2.01171 18.8601C2.00781 17.5749 2.00781 16.2468 2.01953 14.9383C2.02343 13.8211 2.77733 12.8485 3.85543 12.5633C4.86323 12.3602 5.80462 12.5008 6.93741 12.4578C7.58975 12.4578 8.23817 12.4578 8.89051 12.4617C11.5897 12.6024 11.6209 14.6765 11.535 16.8289ZM20.5973 13.8641C23.5778 16.8093 21.4294 22.0202 17.2302 21.9928C13.0584 22.0163 10.8553 16.8132 13.8631 13.8719C15.6404 12.0164 18.82 11.9969 20.5973 13.8641ZM12.4686 8.98914C12.449 7.39932 12.449 5.93451 12.4686 4.51656C12.4647 3.13768 13.5818 2.0127 14.9607 2.00879H14.992C16.488 1.99707 17.9802 1.99707 19.5427 2.00879C20.8356 1.98926 21.9997 3.16502 21.984 4.45797C21.9919 5.32905 21.984 6.1845 21.984 7.04777C21.9411 8.29775 22.2536 9.8485 21.2536 10.7938C20.2341 11.8602 18.5427 11.4579 17.2224 11.5399C16.4724 11.5399 15.7224 11.536 14.9959 11.5243C13.6053 11.5282 12.4725 10.4071 12.4686 9.01258V8.98914Z" fill="#976239"/>
</svg>
