<svg width="24" height="24" viewBox="0 0 24 24" fill="none" xmlns="http://www.w3.org/2000/svg">
<path d="M10.48 11.1525C10.7285 11.2566 10.9864 11.3369 11.25 11.3925V20.9125C11.0883 20.8709 10.9309 20.8139 10.78 20.7425L4.78 18.0725C4.25023 17.8367 3.80016 17.4524 3.48425 16.9661C3.16834 16.4798 3.00014 15.9124 3 15.3325V8.67253C3.0008 8.40543 3.0378 8.13968 3.11 7.88253L10.48 11.1525ZM14.82 8.92253L6.67 5.09253L4.78 5.93253C4.43914 6.08236 4.13022 6.29623 3.87 6.56253L11.08 9.77253C11.3697 9.90109 11.6831 9.96751 12 9.96751C12.3169 9.96751 12.6303 9.90109 12.92 9.77253L14.82 8.92253ZM20.13 6.56253C19.8698 6.29623 19.5609 6.08236 19.22 5.93253L13.22 3.26253C12.8366 3.08949 12.4207 3 12 3C11.5793 3 11.1634 3.08949 10.78 3.26253L8.49 4.28253L16.64 8.11253L20.13 6.56253ZM20.89 7.88253L17.38 9.44253V11.8925C17.38 12.0914 17.301 12.2822 17.1603 12.4229C17.0197 12.5635 16.8289 12.6425 16.63 12.6425C16.4311 12.6425 16.2403 12.5635 16.0997 12.4229C15.959 12.2822 15.88 12.0914 15.88 11.8925V10.1025L13.52 11.1525C13.2698 11.2521 13.0124 11.3323 12.75 11.3925V20.9125C12.9117 20.8709 13.0691 20.8139 13.22 20.7425L19.22 18.0725C19.7498 17.8367 20.1998 17.4524 20.5158 16.9661C20.8317 16.4798 20.9999 15.9124 21 15.3325V8.67253C20.9992 8.40543 20.9622 8.13968 20.89 7.88253Z" fill="white"/>
</svg>
