<svg width="18" height="18" viewBox="0 0 18 18" fill="none" xmlns="http://www.w3.org/2000/svg">
<path d="M10.845 2.44812L11.505 1.78812C12.285 1.00813 13.6425 1.00813 14.4225 1.78812L14.955 2.32062C15.1471 2.51111 15.2996 2.73776 15.4037 2.98749C15.5077 3.23722 15.5613 3.50508 15.5613 3.77562C15.5613 4.04617 15.5077 4.31403 15.4037 4.56376C15.2996 4.81349 15.1471 5.04014 14.955 5.23063L14.295 5.89062L10.845 2.44062V2.44812ZM10.05 3.24312L3.2175 10.0756C3 10.2931 2.865 10.5781 2.8425 10.8856L2.64 13.0831C2.6175 13.3606 2.715 13.6306 2.91 13.8331C3.09 14.0131 3.3225 14.1106 3.57 14.1106H3.6525L5.85 13.9081C6.1575 13.8781 6.4425 13.7431 6.66 13.5256L13.4925 6.69312L10.0425 3.24312H10.05ZM17.0625 16.5031C17.0625 16.1956 16.8075 15.9406 16.5 15.9406H1.5C1.1925 15.9406 0.9375 16.1956 0.9375 16.5031C0.9375 16.8106 1.1925 17.0656 1.5 17.0656H16.5C16.8075 17.0656 17.0625 16.8106 17.0625 16.5031Z" fill="#0D894F"/>
</svg>
